<?xml version="1.0" encoding="UTF-8" standalone="no"?>
<!-- Created with Inkscape (http://www.inkscape.org/) -->

<svg
   xmlns:dc="http://purl.org/dc/elements/1.1/"
   xmlns:cc="http://creativecommons.org/ns#"
   xmlns:rdf="http://www.w3.org/1999/02/22-rdf-syntax-ns#"
   xmlns:svg="http://www.w3.org/2000/svg"
   xmlns="http://www.w3.org/2000/svg"
   xmlns:sodipodi="http://sodipodi.sourceforge.net/DTD/sodipodi-0.dtd"
   xmlns:inkscape="http://www.inkscape.org/namespaces/inkscape"
   width="210mm"
   height="297mm"
   viewBox="0 0 744.09448819 1052.3622047"
   id="svg12738"
   version="1.1"
   inkscape:version="0.91 r13725"
   sodipodi:docname="fist-potar-board.svg">
  <defs
     id="defs12740" />
  <sodipodi:namedview
     id="base"
     pagecolor="#ffffff"
     bordercolor="#666666"
     borderopacity="1.0"
     inkscape:pageopacity="0.0"
     inkscape:pageshadow="2"
     inkscape:zoom="1.4"
     inkscape:cx="282.28605"
     inkscape:cy="929.56618"
     inkscape:document-units="mm"
     inkscape:current-layer="layer1"
     showgrid="true"
     showguides="false"
     inkscape:window-width="1875"
     inkscape:window-height="1056"
     inkscape:window-x="45"
     inkscape:window-y="24"
     inkscape:window-maximized="1">
    <inkscape:grid
       type="xygrid"
       id="grid17325" />
  </sodipodi:namedview>
  <metadata
     id="metadata12743">
    <rdf:RDF>
      <cc:Work
         rdf:about="">
        <dc:format>image/svg+xml</dc:format>
        <dc:type
           rdf:resource="http://purl.org/dc/dcmitype/StillImage" />
        <dc:title></dc:title>
      </cc:Work>
    </rdf:RDF>
  </metadata>
  <g
     inkscape:label="Layer 1"
     inkscape:groupmode="layer"
     id="layer1">
    <path
       style="opacity:0.68800001;fill:none;fill-opacity:1;fill-rule:nonzero;stroke:#000000;stroke-width:0.03302513;stroke-miterlimit:4;stroke-dasharray:none;stroke-opacity:1"
       d="M 136.05402,70.882648 A 12.384425,12.384425 0 0 0 123.66988,83.268621 12.384425,12.384425 0 0 0 136.05402,95.652779 12.384425,12.384425 0 0 0 148.44,83.268621 12.384425,12.384425 0 0 0 136.05402,70.882648 Z"
       id="path8112"
       inkscape:connector-curvature="0" />
    <path
       style="opacity:0.68800001;fill:none;fill-opacity:1;fill-rule:nonzero;stroke:#000000;stroke-width:0.03275073;stroke-miterlimit:4;stroke-dasharray:none;stroke-opacity:1"
       d="m 106.31559,79.032118 0,8.471186 4.25463,0 0,-8.471186 -4.25463,0 z"
       id="rect8121"
       inkscape:connector-curvature="0" />
    <path
       style="opacity:0.68800001;fill:none;fill-opacity:1;fill-rule:nonzero;stroke:#000000;stroke-width:0.03302513;stroke-miterlimit:4;stroke-dasharray:none;stroke-opacity:1"
       d="M 224.6367,70.882643 A 12.384425,12.384425 0 0 0 212.25256,83.268623 12.384425,12.384425 0 0 0 224.6367,95.652769 12.384425,12.384425 0 0 0 237.02268,83.268623 12.384425,12.384425 0 0 0 224.6367,70.882643 Z"
       id="path8112-3"
       inkscape:connector-curvature="0" />
    <path
       style="opacity:0.68800001;fill:none;fill-opacity:1;fill-rule:nonzero;stroke:#000000;stroke-width:0.03275073;stroke-miterlimit:4;stroke-dasharray:none;stroke-opacity:1"
       d="m 194.89827,79.032113 0,8.47119 4.25463,0 0,-8.47119 -4.25463,0 z"
       id="rect8121-3"
       inkscape:connector-curvature="0" />
    <path
       style="opacity:0.68800001;fill:none;fill-opacity:1;fill-rule:nonzero;stroke:#000000;stroke-width:0.03302513;stroke-miterlimit:4;stroke-dasharray:none;stroke-opacity:1"
       d="m 313.21937,70.882643 a 12.384425,12.384425 0 0 0 -12.38414,12.38598 12.384425,12.384425 0 0 0 12.38414,12.384146 12.384425,12.384425 0 0 0 12.38598,-12.384146 12.384425,12.384425 0 0 0 -12.38598,-12.38598 z"
       id="path8112-4"
       inkscape:connector-curvature="0" />
    <path
       style="opacity:0.68800001;fill:none;fill-opacity:1;fill-rule:nonzero;stroke:#000000;stroke-width:0.03275073;stroke-miterlimit:4;stroke-dasharray:none;stroke-opacity:1"
       d="m 283.48094,79.032113 0,8.47119 4.25463,0 0,-8.47119 -4.25463,0 z"
       id="rect8121-1"
       inkscape:connector-curvature="0" />
    <path
       style="opacity:0.68800001;fill:none;fill-opacity:1;fill-rule:nonzero;stroke:#000000;stroke-width:0.03302513;stroke-miterlimit:4;stroke-dasharray:none;stroke-opacity:1"
       d="m 401.80205,70.882643 a 12.384425,12.384425 0 0 0 -12.38414,12.38598 12.384425,12.384425 0 0 0 12.38414,12.384146 12.384425,12.384425 0 0 0 12.38598,-12.384146 12.384425,12.384425 0 0 0 -12.38598,-12.38598 z"
       id="path8112-3-0"
       inkscape:connector-curvature="0" />
    <path
       style="opacity:0.68800001;fill:none;fill-opacity:1;fill-rule:nonzero;stroke:#000000;stroke-width:0.03275073;stroke-miterlimit:4;stroke-dasharray:none;stroke-opacity:1"
       d="m 372.06362,79.032113 0,8.47119 4.25463,0 0,-8.47119 -4.25463,0 z"
       id="rect8121-3-9"
       inkscape:connector-curvature="0" />
    <path
       style="opacity:0.68800001;fill:none;fill-opacity:1;fill-rule:nonzero;stroke:#000000;stroke-width:0.03302513;stroke-miterlimit:4;stroke-dasharray:none;stroke-opacity:1"
       d="m 490.38473,70.882643 a 12.384425,12.384425 0 0 0 -12.38414,12.38598 12.384425,12.384425 0 0 0 12.38414,12.384146 12.384425,12.384425 0 0 0 12.38598,-12.384146 12.384425,12.384425 0 0 0 -12.38598,-12.38598 z"
       id="path8112-8"
       inkscape:connector-curvature="0" />
    <path
       style="opacity:0.68800001;fill:none;fill-opacity:1;fill-rule:nonzero;stroke:#000000;stroke-width:0.03275073;stroke-miterlimit:4;stroke-dasharray:none;stroke-opacity:1"
       d="m 460.6463,79.032113 0,8.47119 4.25463,0 0,-8.47119 -4.25463,0 z"
       id="rect8121-5"
       inkscape:connector-curvature="0" />
    <path
       style="opacity:0.68800001;fill:none;fill-opacity:1;fill-rule:nonzero;stroke:#000000;stroke-width:0.03302513;stroke-miterlimit:4;stroke-dasharray:none;stroke-opacity:1"
       d="m 578.96741,70.882643 a 12.384425,12.384425 0 0 0 -12.38414,12.38598 12.384425,12.384425 0 0 0 12.38414,12.384146 12.384425,12.384425 0 0 0 12.38598,-12.384146 12.384425,12.384425 0 0 0 -12.38598,-12.38598 z"
       id="path8112-3-3"
       inkscape:connector-curvature="0" />
    <path
       style="opacity:0.68800001;fill:none;fill-opacity:1;fill-rule:nonzero;stroke:#000000;stroke-width:0.03275073;stroke-miterlimit:4;stroke-dasharray:none;stroke-opacity:1"
       d="m 549.22898,79.032113 0,8.47119 4.25463,0 0,-8.47119 -4.25463,0 z"
       id="rect8121-3-7"
       inkscape:connector-curvature="0" />
    <path
       style="opacity:0.68800001;fill:none;fill-opacity:1;fill-rule:nonzero;stroke:#000000;stroke-width:0.00999584;stroke-miterlimit:4;stroke-dasharray:none;stroke-opacity:1"
       d="m 75.613677,83.267713 a 10.802089,10.802089 0 0 1 -10.80209,10.80209 10.802089,10.802089 0 0 1 -10.80209,-10.80209 10.802089,10.802089 0 0 1 10.80209,-10.80209 10.802089,10.802089 0 0 1 10.80209,10.80209 z"
       id="path12701"
       inkscape:connector-curvature="0" />
    <path
       style="opacity:0.68800001;fill:none;fill-opacity:1;fill-rule:nonzero;stroke:#000000;stroke-width:0.03543307;stroke-miterlimit:4;stroke-dasharray:none;stroke-opacity:1"
       d="m 26.726506,21.527384 602.042084,0 c 0.086,0 0.15517,0.06921 0.15517,0.155167 l 0,127.238879 c 0,0.086 -0.0692,0.15516 -0.15517,0.15516 l -602.042084,0 c -0.08596,0 -0.155167,-0.0692 -0.155167,-0.15516 l 0,-127.238879 c 0,-0.08596 0.0692,-0.155167 0.155167,-0.155167 z"
       id="rect17449" />
  </g>
</svg>
