  0
SECTION
  2
HEADER
  9
$ACADVER
  1
AC1014
  9
$HANDSEED
  5
FFFF
  9
$MEASUREMENT
 70
     1
  0
ENDSEC
  0
SECTION
  2
TABLES
  0
TABLE
  2
VPORT
  5
8
330
0
100
AcDbSymbolTable
 70
     4
  0
VPORT
  5
2E
330
8
100
AcDbSymbolTableRecord
100
AcDbViewportTableRecord
  2
*ACTIVE
 70
     0
 10
0.0
 20
0.0
 11
1.0
 21
1.0
 12
210.0
 22
148.5
 13
0.0
 23
0.0
 14
10.0
 24
10.0
 15
10.0
 25
10.0
 16
0.0
 26
0.0
 36
1.0
 17
0.0
 27
0.0
 37
0.0
 40
341.0
 41
1.24
 42
50.0
 43
0.0
 44
0.0
 50
0.0
 51
0.0
 71
     0
 72
   100
 73
     1
 74
     3
 75
     0
 76
     0
 77
     0
 78
     0
  0
ENDTAB
  0
TABLE
  2
LTYPE
  5
5
330
0
100
AcDbSymbolTable
 70
     1
  0
LTYPE
  5
14
330
5
100
AcDbSymbolTableRecord
100
AcDbLinetypeTableRecord
  2
BYBLOCK
 70
     0
  3

 72
    65
 73
     0
 40
0.0
  0
LTYPE
  5
15
330
5
100
AcDbSymbolTableRecord
100
AcDbLinetypeTableRecord
  2
BYLAYER
 70
     0
  3

 72
    65
 73
     0
 40
0.0
  0
LTYPE
  5
16
330
5
100
AcDbSymbolTableRecord
100
AcDbLinetypeTableRecord
  2
CONTINUOUS
 70
     0
  3
Solid line
 72
    65
 73
     0
 40
0.0
  0
ENDTAB
  0
TABLE
  2
LAYER
  5
2
100
AcDbSymbolTable
 70
2
  0
LAYER
  5
50
100
AcDbSymbolTableRecord
100
AcDbLayerTableRecord
  2
0
 70
0
  6
CONTINUOUS
  0
LAYER
  5
51
100
AcDbSymbolTableRecord
100
AcDbLayerTableRecord
  2
Layer_1
 70
0
  6
CONTINUOUS
  0
ENDTAB
  0
TABLE
  2
STYLE
  5
3
330
0
100
AcDbSymbolTable
 70
     1
  0
STYLE
  5
11
330
3
100
AcDbSymbolTableRecord
100
AcDbTextStyleTableRecord
  2
STANDARD
 70
     0
 40
0.0
 41
1.0
 50
0.0
 71
     0
 42
2.5
  3
txt
  4

  0
ENDTAB
  0
TABLE
  2
VIEW
  5
6
330
0
100
AcDbSymbolTable
 70
     0
  0
ENDTAB
  0
TABLE
  2
UCS
  5
7
330
0
100
AcDbSymbolTable
 70
     0
  0
ENDTAB
  0
TABLE
  2
APPID
  5
9
330
0
100
AcDbSymbolTable
 70
     2
  0
APPID
  5
12
330
9
100
AcDbSymbolTableRecord
100
AcDbRegAppTableRecord
  2
ACAD
 70
     0
  0
ENDTAB
  0
TABLE
  2
DIMSTYLE
  5
A
330
0
100
AcDbSymbolTable
 70
     1
  0
DIMSTYLE
105
27
330
A
100
AcDbSymbolTableRecord
100
AcDbDimStyleTableRecord
  2
ISO-25
 70
     0
  3

  4

  5

  6

  7

 40
1.0
 41
2.5
 42
0.625
 43
3.75
 44
1.25
 45
0.0
 46
0.0
 47
0.0
 48
0.0
140
2.5
141
2.5
142
0.0
143
0.03937007874016
144
1.0
145
0.0
146
1.0
147
0.625
 71
     0
 72
     0
 73
     0
 74
     0
 75
     0
 76
     0
 77
     1
 78
     8
170
     0
171
     3
172
     1
173
     0
174
     0
175
     0
176
     0
177
     0
178
     0
270
     2
271
     2
272
     2
273
     2
274
     3
340
11
275
     0
280
     0
281
     0
282
     0
283
     0
284
     8
285
     0
286
     0
287
     3
288
     0
  0
ENDTAB
  0
TABLE
  2
BLOCK_RECORD
  5
1
330
0
100
AcDbSymbolTable
 70
     1
  0
BLOCK_RECORD
  5
1F
330
1
100
AcDbSymbolTableRecord
100
AcDbBlockTableRecord
  2
*MODEL_SPACE
  0
BLOCK_RECORD
  5
1B
330
1
100
AcDbSymbolTableRecord
100
AcDbBlockTableRecord
  2
*PAPER_SPACE
  0
ENDTAB
  0
ENDSEC
  0
SECTION
  2
BLOCKS
  0
BLOCK
  5
20
330
1F
100
AcDbEntity
  8
0
100
AcDbBlockBegin
  2
*MODEL_SPACE
 70
     0
 10
0.0
 20
0.0
 30
0.0
  3
*MODEL_SPACE
  1

  0
ENDBLK
  5
21
330
1F
100
AcDbEntity
  8
0
100
AcDbBlockEnd
  0
BLOCK
  5
1C
330
1B
100
AcDbEntity
 67
     1
  8
0
100
AcDbBlockBegin
  2
*PAPER_SPACE
  1

  0
ENDBLK
  5
1D
330
1B
100
AcDbEntity
 67
     1
  8
0
100
AcDbBlockEnd
  0
ENDSEC
  0
SECTION
  2
ENTITIES
  0
SPLINE
  5
100
100
AcDbEntity
  8
Layer_1
 62
7
100
AcDbSpline
 70
8
 71
3
 72
8
 73
4
 74
0
 40
0
 40
0
 40
0
 40
0
 40
1
 40
1
 40
1
 40
1
 10
38.397468
 20
276.995342
 30
0.0
 10
37.470432
 20
276.995320
 30
0.0
 10
36.581379
 20
276.627012
 30
0.0
 10
35.925914
 20
275.971450
 30
0.0
  0
SPLINE
  5
101
100
AcDbEntity
  8
Layer_1
 62
7
100
AcDbSpline
 70
8
 71
3
 72
8
 73
4
 74
0
 40
0
 40
0
 40
0
 40
0
 40
1
 40
1
 40
1
 40
1
 10
35.925914
 20
275.971450
 30
0.0
 10
35.270449
 20
275.315888
 30
0.0
 10
34.902272
 20
274.426781
 30
0.0
 10
34.902388
 20
273.499745
 30
0.0
  0
SPLINE
  5
102
100
AcDbEntity
  8
Layer_1
 62
7
100
AcDbSpline
 70
8
 71
3
 72
8
 73
4
 74
0
 40
0
 40
0
 40
0
 40
0
 40
1
 40
1
 40
1
 40
1
 10
34.902388
 20
273.499745
 30
0.0
 10
34.902430
 20
271.569482
 30
0.0
 10
36.467205
 20
270.004705
 30
0.0
 10
38.397468
 20
270.004660
 30
0.0
  0
SPLINE
  5
103
100
AcDbEntity
  8
Layer_1
 62
7
100
AcDbSpline
 70
8
 71
3
 72
8
 73
4
 74
0
 40
0
 40
0
 40
0
 40
0
 40
1
 40
1
 40
1
 40
1
 10
38.397468
 20
270.004660
 30
0.0
 10
39.324505
 20
270.004544
 30
0.0
 10
40.213614
 20
270.372721
 30
0.0
 10
40.869176
 20
271.028187
 30
0.0
  0
SPLINE
  5
104
100
AcDbEntity
  8
Layer_1
 62
7
100
AcDbSpline
 70
8
 71
3
 72
8
 73
4
 74
0
 40
0
 40
0
 40
0
 40
0
 40
1
 40
1
 40
1
 40
1
 10
40.869176
 20
271.028187
 30
0.0
 10
41.524739
 20
271.683653
 30
0.0
 10
41.893047
 20
272.572708
 30
0.0
 10
41.893067
 20
273.499745
 30
0.0
  0
SPLINE
  5
105
100
AcDbEntity
  8
Layer_1
 62
7
100
AcDbSpline
 70
8
 71
3
 72
8
 73
4
 74
0
 40
0
 40
0
 40
0
 40
0
 40
1
 40
1
 40
1
 40
1
 10
41.893067
 20
273.499745
 30
0.0
 10
41.893183
 20
274.426871
 30
0.0
 10
41.524934
 20
275.316057
 30
0.0
 10
40.869357
 20
275.971634
 30
0.0
  0
SPLINE
  5
106
100
AcDbEntity
  8
Layer_1
 62
7
100
AcDbSpline
 70
8
 71
3
 72
8
 73
4
 74
0
 40
0
 40
0
 40
0
 40
0
 40
1
 40
1
 40
1
 40
1
 10
40.869357
 20
275.971634
 30
0.0
 10
40.213780
 20
276.627210
 30
0.0
 10
39.324594
 20
276.995458
 30
0.0
 10
38.397468
 20
276.995342
 30
0.0
  0
LINE
  5
107
100
AcDbEntity
  8
Layer_1
 62
7
100
AcDbLine
 10
38.397468
 20
276.995342
 30
0.0
 11
38.397468
 21
276.995342
 31
0.0
  0
LINE
  5
108
100
AcDbEntity
  8
Layer_1
 62
7
100
AcDbLine
 10
30.004622
 20
274.695380
 30
0.0
 11
30.004622
 21
272.304623
 31
0.0
  0
LINE
  5
109
100
AcDbEntity
  8
Layer_1
 62
7
100
AcDbLine
 10
30.004622
 20
272.304623
 30
0.0
 11
31.205373
 21
272.304623
 31
0.0
  0
LINE
  5
10a
100
AcDbEntity
  8
Layer_1
 62
7
100
AcDbLine
 10
31.205373
 20
272.304623
 30
0.0
 11
31.205373
 21
274.695380
 31
0.0
  0
LINE
  5
10b
100
AcDbEntity
  8
Layer_1
 62
7
100
AcDbLine
 10
31.205373
 20
274.695380
 30
0.0
 11
30.004622
 21
274.695380
 31
0.0
  0
LINE
  5
10c
100
AcDbEntity
  8
Layer_1
 62
7
100
AcDbLine
 10
30.004622
 20
274.695380
 30
0.0
 11
30.004622
 21
274.695380
 31
0.0
  0
SPLINE
  5
10d
100
AcDbEntity
  8
Layer_1
 62
7
100
AcDbSpline
 70
8
 71
3
 72
8
 73
4
 74
0
 40
0
 40
0
 40
0
 40
0
 40
1
 40
1
 40
1
 40
1
 10
63.397469
 20
276.995343
 30
0.0
 10
62.470433
 20
276.995322
 30
0.0
 10
61.581379
 20
276.627013
 30
0.0
 10
60.925914
 20
275.971451
 30
0.0
  0
SPLINE
  5
10e
100
AcDbEntity
  8
Layer_1
 62
7
100
AcDbSpline
 70
8
 71
3
 72
8
 73
4
 74
0
 40
0
 40
0
 40
0
 40
0
 40
1
 40
1
 40
1
 40
1
 10
60.925914
 20
275.971451
 30
0.0
 10
60.270449
 20
275.315888
 30
0.0
 10
59.902273
 20
274.426780
 30
0.0
 10
59.902389
 20
273.499744
 30
0.0
  0
SPLINE
  5
10f
100
AcDbEntity
  8
Layer_1
 62
7
100
AcDbSpline
 70
8
 71
3
 72
8
 73
4
 74
0
 40
0
 40
0
 40
0
 40
0
 40
1
 40
1
 40
1
 40
1
 10
59.902389
 20
273.499744
 30
0.0
 10
59.902433
 20
271.569483
 30
0.0
 10
61.467207
 20
270.004707
 30
0.0
 10
63.397469
 20
270.004663
 30
0.0
  0
SPLINE
  5
110
100
AcDbEntity
  8
Layer_1
 62
7
100
AcDbSpline
 70
8
 71
3
 72
8
 73
4
 74
0
 40
0
 40
0
 40
0
 40
0
 40
1
 40
1
 40
1
 40
1
 10
63.397469
 20
270.004663
 30
0.0
 10
64.324505
 20
270.004547
 30
0.0
 10
65.213614
 20
270.372723
 30
0.0
 10
65.869176
 20
271.028189
 30
0.0
  0
SPLINE
  5
111
100
AcDbEntity
  8
Layer_1
 62
7
100
AcDbSpline
 70
8
 71
3
 72
8
 73
4
 74
0
 40
0
 40
0
 40
0
 40
0
 40
1
 40
1
 40
1
 40
1
 10
65.869176
 20
271.028189
 30
0.0
 10
66.524738
 20
271.683654
 30
0.0
 10
66.893047
 20
272.572708
 30
0.0
 10
66.893067
 20
273.499744
 30
0.0
  0
SPLINE
  5
112
100
AcDbEntity
  8
Layer_1
 62
7
100
AcDbSpline
 70
8
 71
3
 72
8
 73
4
 74
0
 40
0
 40
0
 40
0
 40
0
 40
1
 40
1
 40
1
 40
1
 10
66.893067
 20
273.499744
 30
0.0
 10
66.893184
 20
274.426870
 30
0.0
 10
66.524936
 20
275.316057
 30
0.0
 10
65.869359
 20
275.971634
 30
0.0
  0
SPLINE
  5
113
100
AcDbEntity
  8
Layer_1
 62
7
100
AcDbSpline
 70
8
 71
3
 72
8
 73
4
 74
0
 40
0
 40
0
 40
0
 40
0
 40
1
 40
1
 40
1
 40
1
 10
65.869359
 20
275.971634
 30
0.0
 10
65.213782
 20
276.627212
 30
0.0
 10
64.324595
 20
276.995459
 30
0.0
 10
63.397469
 20
276.995343
 30
0.0
  0
LINE
  5
114
100
AcDbEntity
  8
Layer_1
 62
7
100
AcDbLine
 10
63.397469
 20
276.995343
 30
0.0
 11
63.397469
 21
276.995343
 31
0.0
  0
LINE
  5
115
100
AcDbEntity
  8
Layer_1
 62
7
100
AcDbLine
 10
55.004623
 20
274.695381
 30
0.0
 11
55.004623
 21
272.304623
 31
0.0
  0
LINE
  5
116
100
AcDbEntity
  8
Layer_1
 62
7
100
AcDbLine
 10
55.004623
 20
272.304623
 30
0.0
 11
56.205374
 21
272.304623
 31
0.0
  0
LINE
  5
117
100
AcDbEntity
  8
Layer_1
 62
7
100
AcDbLine
 10
56.205374
 20
272.304623
 30
0.0
 11
56.205374
 21
274.695381
 31
0.0
  0
LINE
  5
118
100
AcDbEntity
  8
Layer_1
 62
7
100
AcDbLine
 10
56.205374
 20
274.695381
 30
0.0
 11
55.004623
 21
274.695381
 31
0.0
  0
LINE
  5
119
100
AcDbEntity
  8
Layer_1
 62
7
100
AcDbLine
 10
55.004623
 20
274.695381
 30
0.0
 11
55.004623
 21
274.695381
 31
0.0
  0
SPLINE
  5
11a
100
AcDbEntity
  8
Layer_1
 62
7
100
AcDbSpline
 70
8
 71
3
 72
8
 73
4
 74
0
 40
0
 40
0
 40
0
 40
0
 40
1
 40
1
 40
1
 40
1
 10
88.397467
 20
276.995343
 30
0.0
 10
87.470430
 20
276.995322
 30
0.0
 10
86.581377
 20
276.627013
 30
0.0
 10
85.925912
 20
275.971451
 30
0.0
  0
SPLINE
  5
11b
100
AcDbEntity
  8
Layer_1
 62
7
100
AcDbSpline
 70
8
 71
3
 72
8
 73
4
 74
0
 40
0
 40
0
 40
0
 40
0
 40
1
 40
1
 40
1
 40
1
 10
85.925912
 20
275.971451
 30
0.0
 10
85.270447
 20
275.315888
 30
0.0
 10
84.902271
 20
274.426780
 30
0.0
 10
84.902387
 20
273.499744
 30
0.0
  0
SPLINE
  5
11c
100
AcDbEntity
  8
Layer_1
 62
7
100
AcDbSpline
 70
8
 71
3
 72
8
 73
4
 74
0
 40
0
 40
0
 40
0
 40
0
 40
1
 40
1
 40
1
 40
1
 10
84.902387
 20
273.499744
 30
0.0
 10
84.902431
 20
271.569483
 30
0.0
 10
86.467205
 20
270.004707
 30
0.0
 10
88.397467
 20
270.004663
 30
0.0
  0
SPLINE
  5
11d
100
AcDbEntity
  8
Layer_1
 62
7
100
AcDbSpline
 70
8
 71
3
 72
8
 73
4
 74
0
 40
0
 40
0
 40
0
 40
0
 40
1
 40
1
 40
1
 40
1
 10
88.397467
 20
270.004663
 30
0.0
 10
89.324503
 20
270.004547
 30
0.0
 10
90.213612
 20
270.372723
 30
0.0
 10
90.869174
 20
271.028189
 30
0.0
  0
SPLINE
  5
11e
100
AcDbEntity
  8
Layer_1
 62
7
100
AcDbSpline
 70
8
 71
3
 72
8
 73
4
 74
0
 40
0
 40
0
 40
0
 40
0
 40
1
 40
1
 40
1
 40
1
 10
90.869174
 20
271.028189
 30
0.0
 10
91.524736
 20
271.683654
 30
0.0
 10
91.893045
 20
272.572708
 30
0.0
 10
91.893065
 20
273.499744
 30
0.0
  0
SPLINE
  5
11f
100
AcDbEntity
  8
Layer_1
 62
7
100
AcDbSpline
 70
8
 71
3
 72
8
 73
4
 74
0
 40
0
 40
0
 40
0
 40
0
 40
1
 40
1
 40
1
 40
1
 10
91.893065
 20
273.499744
 30
0.0
 10
91.893182
 20
274.426870
 30
0.0
 10
91.524934
 20
275.316057
 30
0.0
 10
90.869357
 20
275.971634
 30
0.0
  0
SPLINE
  5
120
100
AcDbEntity
  8
Layer_1
 62
7
100
AcDbSpline
 70
8
 71
3
 72
8
 73
4
 74
0
 40
0
 40
0
 40
0
 40
0
 40
1
 40
1
 40
1
 40
1
 10
90.869357
 20
275.971634
 30
0.0
 10
90.213780
 20
276.627212
 30
0.0
 10
89.324593
 20
276.995459
 30
0.0
 10
88.397467
 20
276.995343
 30
0.0
  0
LINE
  5
121
100
AcDbEntity
  8
Layer_1
 62
7
100
AcDbLine
 10
88.397467
 20
276.995343
 30
0.0
 11
88.397467
 21
276.995343
 31
0.0
  0
LINE
  5
122
100
AcDbEntity
  8
Layer_1
 62
7
100
AcDbLine
 10
80.004621
 20
274.695381
 30
0.0
 11
80.004621
 21
272.304623
 31
0.0
  0
LINE
  5
123
100
AcDbEntity
  8
Layer_1
 62
7
100
AcDbLine
 10
80.004621
 20
272.304623
 30
0.0
 11
81.205372
 21
272.304623
 31
0.0
  0
LINE
  5
124
100
AcDbEntity
  8
Layer_1
 62
7
100
AcDbLine
 10
81.205372
 20
272.304623
 30
0.0
 11
81.205372
 21
274.695381
 31
0.0
  0
LINE
  5
125
100
AcDbEntity
  8
Layer_1
 62
7
100
AcDbLine
 10
81.205372
 20
274.695381
 30
0.0
 11
80.004621
 21
274.695381
 31
0.0
  0
LINE
  5
126
100
AcDbEntity
  8
Layer_1
 62
7
100
AcDbLine
 10
80.004621
 20
274.695381
 30
0.0
 11
80.004621
 21
274.695381
 31
0.0
  0
SPLINE
  5
127
100
AcDbEntity
  8
Layer_1
 62
7
100
AcDbSpline
 70
8
 71
3
 72
8
 73
4
 74
0
 40
0
 40
0
 40
0
 40
0
 40
1
 40
1
 40
1
 40
1
 10
113.397467
 20
276.995343
 30
0.0
 10
112.470431
 20
276.995322
 30
0.0
 10
111.581378
 20
276.627013
 30
0.0
 10
110.925913
 20
275.971451
 30
0.0
  0
SPLINE
  5
128
100
AcDbEntity
  8
Layer_1
 62
7
100
AcDbSpline
 70
8
 71
3
 72
8
 73
4
 74
0
 40
0
 40
0
 40
0
 40
0
 40
1
 40
1
 40
1
 40
1
 10
110.925913
 20
275.971451
 30
0.0
 10
110.270448
 20
275.315888
 30
0.0
 10
109.902272
 20
274.426780
 30
0.0
 10
109.902388
 20
273.499744
 30
0.0
  0
SPLINE
  5
129
100
AcDbEntity
  8
Layer_1
 62
7
100
AcDbSpline
 70
8
 71
3
 72
8
 73
4
 74
0
 40
0
 40
0
 40
0
 40
0
 40
1
 40
1
 40
1
 40
1
 10
109.902388
 20
273.499744
 30
0.0
 10
109.902431
 20
271.569483
 30
0.0
 10
111.467206
 20
270.004707
 30
0.0
 10
113.397467
 20
270.004663
 30
0.0
  0
SPLINE
  5
12a
100
AcDbEntity
  8
Layer_1
 62
7
100
AcDbSpline
 70
8
 71
3
 72
8
 73
4
 74
0
 40
0
 40
0
 40
0
 40
0
 40
1
 40
1
 40
1
 40
1
 10
113.397467
 20
270.004663
 30
0.0
 10
114.324504
 20
270.004547
 30
0.0
 10
115.213612
 20
270.372723
 30
0.0
 10
115.869175
 20
271.028189
 30
0.0
  0
SPLINE
  5
12b
100
AcDbEntity
  8
Layer_1
 62
7
100
AcDbSpline
 70
8
 71
3
 72
8
 73
4
 74
0
 40
0
 40
0
 40
0
 40
0
 40
1
 40
1
 40
1
 40
1
 10
115.869175
 20
271.028189
 30
0.0
 10
116.524737
 20
271.683654
 30
0.0
 10
116.893045
 20
272.572708
 30
0.0
 10
116.893066
 20
273.499744
 30
0.0
  0
SPLINE
  5
12c
100
AcDbEntity
  8
Layer_1
 62
7
100
AcDbSpline
 70
8
 71
3
 72
8
 73
4
 74
0
 40
0
 40
0
 40
0
 40
0
 40
1
 40
1
 40
1
 40
1
 10
116.893066
 20
273.499744
 30
0.0
 10
116.893183
 20
274.426870
 30
0.0
 10
116.524935
 20
275.316057
 30
0.0
 10
115.869358
 20
275.971634
 30
0.0
  0
SPLINE
  5
12d
100
AcDbEntity
  8
Layer_1
 62
7
100
AcDbSpline
 70
8
 71
3
 72
8
 73
4
 74
0
 40
0
 40
0
 40
0
 40
0
 40
1
 40
1
 40
1
 40
1
 10
115.869358
 20
275.971634
 30
0.0
 10
115.213780
 20
276.627212
 30
0.0
 10
114.324594
 20
276.995459
 30
0.0
 10
113.397467
 20
276.995343
 30
0.0
  0
LINE
  5
12e
100
AcDbEntity
  8
Layer_1
 62
7
100
AcDbLine
 10
113.397467
 20
276.995343
 30
0.0
 11
113.397467
 21
276.995343
 31
0.0
  0
LINE
  5
12f
100
AcDbEntity
  8
Layer_1
 62
7
100
AcDbLine
 10
105.004622
 20
274.695381
 30
0.0
 11
105.004622
 21
272.304623
 31
0.0
  0
LINE
  5
130
100
AcDbEntity
  8
Layer_1
 62
7
100
AcDbLine
 10
105.004622
 20
272.304623
 30
0.0
 11
106.205373
 21
272.304623
 31
0.0
  0
LINE
  5
131
100
AcDbEntity
  8
Layer_1
 62
7
100
AcDbLine
 10
106.205373
 20
272.304623
 30
0.0
 11
106.205373
 21
274.695381
 31
0.0
  0
LINE
  5
132
100
AcDbEntity
  8
Layer_1
 62
7
100
AcDbLine
 10
106.205373
 20
274.695381
 30
0.0
 11
105.004622
 21
274.695381
 31
0.0
  0
LINE
  5
133
100
AcDbEntity
  8
Layer_1
 62
7
100
AcDbLine
 10
105.004622
 20
274.695381
 30
0.0
 11
105.004622
 21
274.695381
 31
0.0
  0
SPLINE
  5
134
100
AcDbEntity
  8
Layer_1
 62
7
100
AcDbSpline
 70
8
 71
3
 72
8
 73
4
 74
0
 40
0
 40
0
 40
0
 40
0
 40
1
 40
1
 40
1
 40
1
 10
138.397468
 20
276.995343
 30
0.0
 10
137.470432
 20
276.995322
 30
0.0
 10
136.581379
 20
276.627013
 30
0.0
 10
135.925914
 20
275.971451
 30
0.0
  0
SPLINE
  5
135
100
AcDbEntity
  8
Layer_1
 62
7
100
AcDbSpline
 70
8
 71
3
 72
8
 73
4
 74
0
 40
0
 40
0
 40
0
 40
0
 40
1
 40
1
 40
1
 40
1
 10
135.925914
 20
275.971451
 30
0.0
 10
135.270449
 20
275.315888
 30
0.0
 10
134.902272
 20
274.426780
 30
0.0
 10
134.902389
 20
273.499744
 30
0.0
  0
SPLINE
  5
136
100
AcDbEntity
  8
Layer_1
 62
7
100
AcDbSpline
 70
8
 71
3
 72
8
 73
4
 74
0
 40
0
 40
0
 40
0
 40
0
 40
1
 40
1
 40
1
 40
1
 10
134.902389
 20
273.499744
 30
0.0
 10
134.902432
 20
271.569483
 30
0.0
 10
136.467207
 20
270.004707
 30
0.0
 10
138.397468
 20
270.004663
 30
0.0
  0
SPLINE
  5
137
100
AcDbEntity
  8
Layer_1
 62
7
100
AcDbSpline
 70
8
 71
3
 72
8
 73
4
 74
0
 40
0
 40
0
 40
0
 40
0
 40
1
 40
1
 40
1
 40
1
 10
138.397468
 20
270.004663
 30
0.0
 10
139.324505
 20
270.004547
 30
0.0
 10
140.213613
 20
270.372723
 30
0.0
 10
140.869175
 20
271.028189
 30
0.0
  0
SPLINE
  5
138
100
AcDbEntity
  8
Layer_1
 62
7
100
AcDbSpline
 70
8
 71
3
 72
8
 73
4
 74
0
 40
0
 40
0
 40
0
 40
0
 40
1
 40
1
 40
1
 40
1
 10
140.869175
 20
271.028189
 30
0.0
 10
141.524738
 20
271.683654
 30
0.0
 10
141.893046
 20
272.572708
 30
0.0
 10
141.893067
 20
273.499744
 30
0.0
  0
SPLINE
  5
139
100
AcDbEntity
  8
Layer_1
 62
7
100
AcDbSpline
 70
8
 71
3
 72
8
 73
4
 74
0
 40
0
 40
0
 40
0
 40
0
 40
1
 40
1
 40
1
 40
1
 10
141.893067
 20
273.499744
 30
0.0
 10
141.893183
 20
274.426870
 30
0.0
 10
141.524936
 20
275.316057
 30
0.0
 10
140.869358
 20
275.971634
 30
0.0
  0
SPLINE
  5
13a
100
AcDbEntity
  8
Layer_1
 62
7
100
AcDbSpline
 70
8
 71
3
 72
8
 73
4
 74
0
 40
0
 40
0
 40
0
 40
0
 40
1
 40
1
 40
1
 40
1
 10
140.869358
 20
275.971634
 30
0.0
 10
140.213781
 20
276.627212
 30
0.0
 10
139.324594
 20
276.995459
 30
0.0
 10
138.397468
 20
276.995343
 30
0.0
  0
LINE
  5
13b
100
AcDbEntity
  8
Layer_1
 62
7
100
AcDbLine
 10
138.397468
 20
276.995343
 30
0.0
 11
138.397468
 21
276.995343
 31
0.0
  0
LINE
  5
13c
100
AcDbEntity
  8
Layer_1
 62
7
100
AcDbLine
 10
130.004622
 20
274.695381
 30
0.0
 11
130.004622
 21
272.304623
 31
0.0
  0
LINE
  5
13d
100
AcDbEntity
  8
Layer_1
 62
7
100
AcDbLine
 10
130.004622
 20
272.304623
 30
0.0
 11
131.205374
 21
272.304623
 31
0.0
  0
LINE
  5
13e
100
AcDbEntity
  8
Layer_1
 62
7
100
AcDbLine
 10
131.205374
 20
272.304623
 30
0.0
 11
131.205374
 21
274.695381
 31
0.0
  0
LINE
  5
13f
100
AcDbEntity
  8
Layer_1
 62
7
100
AcDbLine
 10
131.205374
 20
274.695381
 30
0.0
 11
130.004622
 21
274.695381
 31
0.0
  0
LINE
  5
140
100
AcDbEntity
  8
Layer_1
 62
7
100
AcDbLine
 10
130.004622
 20
274.695381
 30
0.0
 11
130.004622
 21
274.695381
 31
0.0
  0
SPLINE
  5
141
100
AcDbEntity
  8
Layer_1
 62
7
100
AcDbSpline
 70
8
 71
3
 72
8
 73
4
 74
0
 40
0
 40
0
 40
0
 40
0
 40
1
 40
1
 40
1
 40
1
 10
163.397469
 20
276.995343
 30
0.0
 10
162.470433
 20
276.995322
 30
0.0
 10
161.581379
 20
276.627013
 30
0.0
 10
160.925915
 20
275.971451
 30
0.0
  0
SPLINE
  5
142
100
AcDbEntity
  8
Layer_1
 62
7
100
AcDbSpline
 70
8
 71
3
 72
8
 73
4
 74
0
 40
0
 40
0
 40
0
 40
0
 40
1
 40
1
 40
1
 40
1
 10
160.925915
 20
275.971451
 30
0.0
 10
160.270450
 20
275.315888
 30
0.0
 10
159.902273
 20
274.426780
 30
0.0
 10
159.902390
 20
273.499744
 30
0.0
  0
SPLINE
  5
143
100
AcDbEntity
  8
Layer_1
 62
7
100
AcDbSpline
 70
8
 71
3
 72
8
 73
4
 74
0
 40
0
 40
0
 40
0
 40
0
 40
1
 40
1
 40
1
 40
1
 10
159.902390
 20
273.499744
 30
0.0
 10
159.902433
 20
271.569483
 30
0.0
 10
161.467208
 20
270.004707
 30
0.0
 10
163.397469
 20
270.004663
 30
0.0
  0
SPLINE
  5
144
100
AcDbEntity
  8
Layer_1
 62
7
100
AcDbSpline
 70
8
 71
3
 72
8
 73
4
 74
0
 40
0
 40
0
 40
0
 40
0
 40
1
 40
1
 40
1
 40
1
 10
163.397469
 20
270.004663
 30
0.0
 10
164.324505
 20
270.004547
 30
0.0
 10
165.213614
 20
270.372723
 30
0.0
 10
165.869176
 20
271.028189
 30
0.0
  0
SPLINE
  5
145
100
AcDbEntity
  8
Layer_1
 62
7
100
AcDbSpline
 70
8
 71
3
 72
8
 73
4
 74
0
 40
0
 40
0
 40
0
 40
0
 40
1
 40
1
 40
1
 40
1
 10
165.869176
 20
271.028189
 30
0.0
 10
166.524738
 20
271.683654
 30
0.0
 10
166.893047
 20
272.572708
 30
0.0
 10
166.893068
 20
273.499744
 30
0.0
  0
SPLINE
  5
146
100
AcDbEntity
  8
Layer_1
 62
7
100
AcDbSpline
 70
8
 71
3
 72
8
 73
4
 74
0
 40
0
 40
0
 40
0
 40
0
 40
1
 40
1
 40
1
 40
1
 10
166.893068
 20
273.499744
 30
0.0
 10
166.893184
 20
274.426870
 30
0.0
 10
166.524936
 20
275.316057
 30
0.0
 10
165.869359
 20
275.971634
 30
0.0
  0
SPLINE
  5
147
100
AcDbEntity
  8
Layer_1
 62
7
100
AcDbSpline
 70
8
 71
3
 72
8
 73
4
 74
0
 40
0
 40
0
 40
0
 40
0
 40
1
 40
1
 40
1
 40
1
 10
165.869359
 20
275.971634
 30
0.0
 10
165.213782
 20
276.627212
 30
0.0
 10
164.324595
 20
276.995459
 30
0.0
 10
163.397469
 20
276.995343
 30
0.0
  0
LINE
  5
148
100
AcDbEntity
  8
Layer_1
 62
7
100
AcDbLine
 10
163.397469
 20
276.995343
 30
0.0
 11
163.397469
 21
276.995343
 31
0.0
  0
LINE
  5
149
100
AcDbEntity
  8
Layer_1
 62
7
100
AcDbLine
 10
155.004623
 20
274.695381
 30
0.0
 11
155.004623
 21
272.304623
 31
0.0
  0
LINE
  5
14a
100
AcDbEntity
  8
Layer_1
 62
7
100
AcDbLine
 10
155.004623
 20
272.304623
 30
0.0
 11
156.205374
 21
272.304623
 31
0.0
  0
LINE
  5
14b
100
AcDbEntity
  8
Layer_1
 62
7
100
AcDbLine
 10
156.205374
 20
272.304623
 30
0.0
 11
156.205374
 21
274.695381
 31
0.0
  0
LINE
  5
14c
100
AcDbEntity
  8
Layer_1
 62
7
100
AcDbLine
 10
156.205374
 20
274.695381
 30
0.0
 11
155.004623
 21
274.695381
 31
0.0
  0
LINE
  5
14d
100
AcDbEntity
  8
Layer_1
 62
7
100
AcDbLine
 10
155.004623
 20
274.695381
 30
0.0
 11
155.004623
 21
274.695381
 31
0.0
  0
SPLINE
  5
14e
100
AcDbEntity
  8
Layer_1
 62
7
100
AcDbSpline
 70
8
 71
3
 72
8
 73
4
 74
0
 40
0
 40
0
 40
0
 40
0
 40
1
 40
1
 40
1
 40
1
 10
21.339860
 20
273.500001
 30
0.0
 10
21.339860
 20
272.691465
 30
0.0
 10
21.018670
 20
271.916044
 30
0.0
 10
20.446949
 20
271.344322
 30
0.0
  0
SPLINE
  5
14f
100
AcDbEntity
  8
Layer_1
 62
7
100
AcDbSpline
 70
8
 71
3
 72
8
 73
4
 74
0
 40
0
 40
0
 40
0
 40
0
 40
1
 40
1
 40
1
 40
1
 10
20.446949
 20
271.344322
 30
0.0
 10
19.875227
 20
270.772601
 30
0.0
 10
19.099806
 20
270.451411
 30
0.0
 10
18.291270
 20
270.451411
 30
0.0
  0
SPLINE
  5
150
100
AcDbEntity
  8
Layer_1
 62
7
100
AcDbSpline
 70
8
 71
3
 72
8
 73
4
 74
0
 40
0
 40
0
 40
0
 40
0
 40
1
 40
1
 40
1
 40
1
 10
18.291270
 20
270.451411
 30
0.0
 10
17.482734
 20
270.451411
 30
0.0
 10
16.707313
 20
270.772601
 30
0.0
 10
16.135591
 20
271.344322
 30
0.0
  0
SPLINE
  5
151
100
AcDbEntity
  8
Layer_1
 62
7
100
AcDbSpline
 70
8
 71
3
 72
8
 73
4
 74
0
 40
0
 40
0
 40
0
 40
0
 40
1
 40
1
 40
1
 40
1
 10
16.135591
 20
271.344322
 30
0.0
 10
15.563870
 20
271.916044
 30
0.0
 10
15.242680
 20
272.691465
 30
0.0
 10
15.242680
 20
273.500001
 30
0.0
  0
SPLINE
  5
152
100
AcDbEntity
  8
Layer_1
 62
7
100
AcDbSpline
 70
8
 71
3
 72
8
 73
4
 74
0
 40
0
 40
0
 40
0
 40
0
 40
1
 40
1
 40
1
 40
1
 10
15.242680
 20
273.500001
 30
0.0
 10
15.242680
 20
274.308537
 30
0.0
 10
15.563870
 20
275.083958
 30
0.0
 10
16.135591
 20
275.655680
 30
0.0
  0
SPLINE
  5
153
100
AcDbEntity
  8
Layer_1
 62
7
100
AcDbSpline
 70
8
 71
3
 72
8
 73
4
 74
0
 40
0
 40
0
 40
0
 40
0
 40
1
 40
1
 40
1
 40
1
 10
16.135591
 20
275.655680
 30
0.0
 10
16.707313
 20
276.227401
 30
0.0
 10
17.482734
 20
276.548591
 30
0.0
 10
18.291270
 20
276.548591
 30
0.0
  0
SPLINE
  5
154
100
AcDbEntity
  8
Layer_1
 62
7
100
AcDbSpline
 70
8
 71
3
 72
8
 73
4
 74
0
 40
0
 40
0
 40
0
 40
0
 40
1
 40
1
 40
1
 40
1
 10
18.291270
 20
276.548591
 30
0.0
 10
19.099806
 20
276.548591
 30
0.0
 10
19.875227
 20
276.227401
 30
0.0
 10
20.446949
 20
275.655680
 30
0.0
  0
SPLINE
  5
155
100
AcDbEntity
  8
Layer_1
 62
7
100
AcDbSpline
 70
8
 71
3
 72
8
 73
4
 74
0
 40
0
 40
0
 40
0
 40
0
 40
1
 40
1
 40
1
 40
1
 10
20.446949
 20
275.655680
 30
0.0
 10
21.018670
 20
275.083958
 30
0.0
 10
21.339860
 20
274.308537
 30
0.0
 10
21.339860
 20
273.500001
 30
0.0
  0
LINE
  5
156
100
AcDbEntity
  8
Layer_1
 62
7
100
AcDbLine
 10
21.339860
 20
273.500001
 30
0.0
 11
21.339860
 21
273.500001
 31
0.0
  0
LINE
  5
157
100
AcDbEntity
  8
Layer_1
 62
7
100
AcDbLine
 10
7.542814
 20
290.924494
 30
0.0
 11
177.452469
 21
290.924494
 31
0.0
  0
SPLINE
  5
158
100
AcDbEntity
  8
Layer_1
 62
7
100
AcDbSpline
 70
8
 71
3
 72
8
 73
4
 74
0
 40
0
 40
0
 40
0
 40
0
 40
1
 40
1
 40
1
 40
1
 10
177.452469
 20
290.924494
 30
0.0
 10
177.476740
 20
290.924494
 30
0.0
 10
177.496261
 20
290.904961
 30
0.0
 10
177.496261
 20
290.880702
 30
0.0
  0
LINE
  5
159
100
AcDbEntity
  8
Layer_1
 62
7
100
AcDbLine
 10
177.496261
 20
290.880702
 30
0.0
 11
177.496261
 21
254.971063
 31
0.0
  0
SPLINE
  5
15a
100
AcDbEntity
  8
Layer_1
 62
7
100
AcDbSpline
 70
8
 71
3
 72
8
 73
4
 74
0
 40
0
 40
0
 40
0
 40
0
 40
1
 40
1
 40
1
 40
1
 10
177.496261
 20
254.971063
 30
0.0
 10
177.496261
 20
254.946792
 30
0.0
 10
177.476731
 20
254.927273
 30
0.0
 10
177.452469
 20
254.927273
 30
0.0
  0
LINE
  5
15b
100
AcDbEntity
  8
Layer_1
 62
7
100
AcDbLine
 10
177.452469
 20
254.927273
 30
0.0
 11
7.542814
 21
254.927273
 31
0.0
  0
SPLINE
  5
15c
100
AcDbEntity
  8
Layer_1
 62
7
100
AcDbSpline
 70
8
 71
3
 72
8
 73
4
 74
0
 40
0
 40
0
 40
0
 40
0
 40
1
 40
1
 40
1
 40
1
 10
7.542814
 20
254.927273
 30
0.0
 10
7.518554
 20
254.927273
 30
0.0
 10
7.499022
 20
254.946803
 30
0.0
 10
7.499022
 20
254.971063
 30
0.0
  0
LINE
  5
15d
100
AcDbEntity
  8
Layer_1
 62
7
100
AcDbLine
 10
7.499022
 20
254.971063
 30
0.0
 11
7.499022
 21
290.880702
 31
0.0
  0
SPLINE
  5
15e
100
AcDbEntity
  8
Layer_1
 62
7
100
AcDbSpline
 70
8
 71
3
 72
8
 73
4
 74
0
 40
0
 40
0
 40
0
 40
0
 40
1
 40
1
 40
1
 40
1
 10
7.499022
 20
290.880702
 30
0.0
 10
7.499022
 20
290.904962
 30
0.0
 10
7.518552
 20
290.924494
 30
0.0
 10
7.542814
 20
290.924494
 30
0.0
  0
LINE
  5
15f
100
AcDbEntity
  8
Layer_1
 62
7
100
AcDbLine
 10
7.542814
 20
290.924494
 30
0.0
 11
7.542814
 21
290.924494
 31
0.0
  0
ENDSEC
  0
SECTION
  2
OBJECTS
  0
DICTIONARY
  5
C
330
0
100
AcDbDictionary
  3
ACAD_GROUP
350
D
  3
ACAD_MLINESTYLE
350
17
  0
DICTIONARY
  5
D
330
C
100
AcDbDictionary
  0
DICTIONARY
  5
1A
330
C
100
AcDbDictionary
  0
DICTIONARY
  5
17
330
C
100
AcDbDictionary
  3
STANDARD
350
18
  0
DICTIONARY
  5
19
330
C
100
AcDbDictionary
  0
ENDSEC
  0
EOF
